<?xml version="1.0" encoding="utf-8"?>
<!-- Generator: Adobe Illustrator 15.0.2, SVG Export Plug-In . SVG Version: 6.00 Build 0)  -->
<!DOCTYPE svg PUBLIC "-//W3C//DTD SVG 1.1//EN" "http://www.w3.org/Graphics/SVG/1.1/DTD/svg11.dtd" [
	<!ENTITY ns_extend "http://ns.adobe.com/Extensibility/1.0/">
	<!ENTITY ns_ai "http://ns.adobe.com/AdobeIllustrator/10.0/">
	<!ENTITY ns_graphs "http://ns.adobe.com/Graphs/1.0/">
	<!ENTITY ns_vars "http://ns.adobe.com/Variables/1.0/">
	<!ENTITY ns_imrep "http://ns.adobe.com/ImageReplacement/1.0/">
	<!ENTITY ns_sfw "http://ns.adobe.com/SaveForWeb/1.0/">
	<!ENTITY ns_custom "http://ns.adobe.com/GenericCustomNamespace/1.0/">
	<!ENTITY ns_adobe_xpath "http://ns.adobe.com/XPath/1.0/">
]>
<svg version="1.1"
	 id="Calque_1" xmlns:x="&ns_extend;" xmlns:i="&ns_ai;" xmlns:graph="&ns_graphs;" xmlns:dc="http://purl.org/dc/elements/1.1/" xmlns:cc="http://creativecommons.org/ns#" xmlns:rdf="http://www.w3.org/1999/02/22-rdf-syntax-ns#" xmlns:svg="http://www.w3.org/2000/svg" xmlns:sodipodi="http://sodipodi.sourceforge.net/DTD/sodipodi-0.dtd" xmlns:inkscape="http://www.inkscape.org/namespaces/inkscape" inkscape:version="0.48.2 r9819" sodipodi:docname="the-law-factory-logo.svg"
	 xmlns="http://www.w3.org/2000/svg" xmlns:xlink="http://www.w3.org/1999/xlink" x="0px" y="0px" width="207px" height="60px"
	 viewBox="0 0 207 60" enable-background="new 0 0 207 60" xml:space="preserve">
<metadata  id="metadata73">
	<rdf:RDF>
		<cc:Work  rdf:about="">
			<dc:format>image/svg+xml</dc:format>
			<dc:type  rdf:resource="http://purl.org/dc/dcmitype/StillImage"></dc:type>
		</cc:Work>
	</rdf:RDF>
	<sfw  xmlns="&ns_sfw;">
		<slices></slices>
		<sliceSourceBounds  height="53" width="163.337" x="199" y="395.5" bottomLeftOrigin="true"></sliceSourceBounds>
	</sfw>
</metadata>
<sodipodi:namedview  id="namedview69" bordercolor="#716259" pagecolor="#ffffff" inkscape:cy="30" inkscape:cx="44.374585" inkscape:zoom="3.8164251" guidetolerance="10" gridtolerance="10" showgrid="false" objecttolerance="10" borderopacity="1" inkscape:window-maximized="1" inkscape:current-layer="Calque_1" inkscape:window-y="0" inkscape:window-x="36" inkscape:window-height="1011" inkscape:window-width="1884" inkscape:pageshadow="2" inkscape:pageopacity="0">
	</sodipodi:namedview>
<path fill="#716259" d="M13,46H7V36h6V46z M9,44h2v-6H9V44z"/>
<path fill="#716259" d="M20,46h-6V36h6V46z M16,44h2v-6h-2V44z"/>
<path fill="#716259" d="M27,46h-6V36h6V46z M23,44h2v-6h-2V44z"/>
<path fill="#716259" d="M34,46h-6V36h6V46z M30,44h2v-6h-2V44z"/>
<path fill="#716259" d="M41,46h-6V36h6V46z M37,44h2v-6h-2V44z"/>
<path fill="#716259" d="M41.133,32H30.867l2.25-18h5.766L41.133,32z M33.133,30h5.734l-1.75-14h-2.234L33.133,30z"/>
<path id="polygon15" inkscape:connector-curvature="0" sodipodi:nodetypes="ccccccccccc" fill="#716259" d="M17.911,24.231
	L6.487,30.114l0.571,1.808h22.848l0.293-1.715l-11.146-5.976H17.911z M18.482,26.192l7.354,3.769H11.128L18.482,26.192z"/>
<rect x="7" y="33" fill="#716259" width="34" height="2"/>
<rect x="7" y="47" fill="#716259" width="34" height="2"/>
<rect x="5" y="50" fill="#716259" width="40" height="2"/>
<rect x="5" y="53" fill="#716259" width="52" height="2"/>
<path id="path27" fill="#716259" d="M70.32,14.523v10.982h5.374l-0.083,1.276H68.86V14.523H70.32z"/>
<path id="path29" fill="#716259" d="M83.536,22.902h-4.871l-1.46,3.879h-1.478l4.567-12.258h1.746l4.316,12.258H84.88L83.536,22.902
	z M83.049,21.777l-1.864-5.844l-2.063,5.844H83.049z"/>
<path id="path31" fill="#716259" d="M97.655,21.088H92.6v5.693h-1.444V14.523h6.783l-0.117,1.258H92.6v4.132h5.055V21.088z"/>
<path id="path33" fill="#716259" d="M106.2,22.902h-4.869l-1.461,3.879h-1.479l4.567-12.258h1.749l4.313,12.258h-1.477L106.2,22.902
	z M105.713,21.777l-1.863-5.844l-2.065,5.844H105.713z"/>
<path id="path35" fill="#716259" d="M110.279,14.523h3.576c2.957,0,4.65,0.822,4.65,2.989c0,1.175-0.502,2.3-1.744,2.703
	c1.543,0.336,2.25,1.765,2.25,3.073c0,2.149-1.261,3.493-4.451,3.493h-4.281V14.523z M111.723,19.812h2.906
	c1.143,0,2.367-0.286,2.367-2.015c0-1.848-1.359-2.1-3.359-2.1h-1.914V19.812z M111.723,25.64h2.57c2.133,0,3.239-0.723,3.239-2.368
	c0-1.545-0.988-2.368-2.82-2.368h-2.989V25.64z"/>
<path id="path37" fill="#716259" d="M128.38,26.781l-1.663-3.813c-0.318-0.722-0.621-1.411-0.873-1.831
	c-0.234,0.018-1.126,0.035-1.408,0.035c-0.151,0-2.185-0.067-2.185-0.067v5.676h-1.444V14.523h3.879
	c2.924,0,4.771,0.419,4.771,3.191c0,1.51-0.74,2.703-2.318,3.123c-0.019,0,0.62,1.042,0.905,1.663l1.983,4.282L128.38,26.781
	L128.38,26.781z M122.251,19.879l2.922,0.034c2.218,0.017,2.854-0.705,2.854-2.167c0-1.276-0.637-1.965-2.519-1.965h-3.258V19.879z"
	/>
<path id="path39" fill="#716259" d="M133.348,26.781h-1.443V14.523h1.443V26.781z"/>
<path id="path41" fill="#716259" d="M135.529,20.668c0-3.812,2.199-6.398,5.996-6.398c3.795,0,5.979,2.586,5.979,6.398
	c0,3.595-2.05,6.298-5.979,6.298C137.596,26.967,135.529,24.263,135.529,20.668z M137.093,20.668c0,2.821,1.343,5.055,4.433,5.055
	c3.091,0,4.416-2.233,4.416-5.055c0-3.057-1.461-5.137-4.416-5.137C138.568,15.531,137.093,17.579,137.093,20.668z M142.449,26.916
	c0.017,0,1.058-0.537,1.377-0.353c0.537,1.193,1.998,2.854,2.25,3.089l-0.956,0.975C144.8,30.308,143.154,28.342,142.449,26.916z"/>
<path id="path43" fill="#716259" d="M149.348,22.5v-7.977h1.443v7.926c0,2.402,0.939,3.308,3.158,3.308
	c2.199,0,3.156-0.906,3.156-3.308v-7.926h1.443V22.5c0,2.636-1.023,4.467-4.601,4.467C150.389,26.967,149.348,25.135,149.348,22.5z"
	/>
<path id="path45" fill="#716259" d="M167.749,21.105h-5.44v4.399h6.028l-0.135,1.276h-7.339V14.523h7.221l-0.102,1.258h-5.676v4.063
	h5.441L167.749,21.105L167.749,21.105z"/>
<path id="path47" fill="#716259" d="M68.86,33.286h3.04c4.231,0,7.321,1.478,7.321,6.216c0,4.078-2.619,6.045-6.482,6.045H68.86
	V33.286z M70.305,44.27h2.586c3.007,0,4.785-1.562,4.785-4.736c0-3.861-2.232-4.985-5.591-4.985h-1.78V44.27z"/>
<path id="path49" fill="#716259" d="M88.119,39.87H82.68v4.399h6.026l-0.135,1.276h-7.338v-12.26h7.221l-0.1,1.261H82.68v4.063
	h5.439V39.87z"/>
<path id="path51" fill="#716259" d="M95.64,33.286V44.27h5.374l-0.085,1.277h-6.75V33.286H95.64z"/>
<path id="path53" fill="#716259" d="M108.854,41.667h-4.869l-1.462,3.88h-1.478l4.566-12.261h1.748l4.313,12.261h-1.476
	L108.854,41.667z M108.367,40.543l-1.863-5.846l-2.066,5.846H108.367z"/>
<path id="path55" fill="#716259" d="M117.936,33.286V44.27h5.375l-0.084,1.277h-6.752V33.286H117.936z"/>
<path id="path57" fill="#716259" d="M124.098,39.434c0-3.812,2.199-6.397,5.994-6.397s5.979,2.587,5.979,6.397
	c0,3.594-2.049,6.297-5.979,6.297C126.164,45.729,124.098,43.027,124.098,39.434z M125.657,39.434c0,2.821,1.343,5.057,4.435,5.057
	c3.09,0,4.416-2.234,4.416-5.057c0-3.057-1.461-5.14-4.416-5.14S125.657,36.344,125.657,39.434z"/>
<path id="path59" fill="#716259" d="M139.66,45.547h-1.442V33.286h1.442V45.547z"/>
<rect x="48" y="44" fill="#716259" width="9" height="2"/>
<rect x="48" y="47" fill="#716259" width="9" height="2"/>
<rect x="48" y="50" fill="#716259" width="9" height="2"/>
<path fill="#716259" d="M43.25,15.592c-2.206,0-4-1.794-4-4c0-2.031,1.522-3.713,3.485-3.967C43.216,4.431,45.955,2,49.25,2
	c3.635,0,6.592,2.957,6.592,6.591c0,3.635-2.957,6.592-6.592,6.592c-1.113,0-2.185-0.275-3.148-0.803
	C45.36,15.144,44.336,15.592,43.25,15.592z M43.25,9.592c-1.103,0-2,0.897-2,2s0.897,2,2,2c0.718,0,1.384-0.398,1.738-1.04
	c0.141-0.255,0.385-0.436,0.669-0.496c0.284-0.06,0.582,0.007,0.812,0.183c0.81,0.617,1.771,0.943,2.78,0.943
	c2.532,0,4.592-2.06,4.592-4.592C53.842,6.06,51.782,4,49.25,4s-4.592,2.06-4.592,4.592c0,0.289-0.124,0.584-0.342,0.774
	c-0.217,0.19-0.501,0.297-0.792,0.258C43.384,9.604,43.318,9.592,43.25,9.592z"/>
</svg>
