<?xml version="1.0" encoding="utf-8"?>
<!-- Generator: Adobe Illustrator 15.0.2, SVG Export Plug-In  -->
<!DOCTYPE svg PUBLIC "-//W3C//DTD SVG 1.1//EN" "http://www.w3.org/Graphics/SVG/1.1/DTD/svg11.dtd" [
	<!ENTITY ns_flows "http://ns.adobe.com/Flows/1.0/">
]>
<svg version="1.1"
	 xmlns="http://www.w3.org/2000/svg" xmlns:xlink="http://www.w3.org/1999/xlink" xmlns:a="http://ns.adobe.com/AdobeSVGViewerExtensions/3.0/"
	 x="0px" y="0px" width="288px" height="288px" viewBox="-18 -90 288 288" enable-background="new -18 -90 288 288"
	 xml:space="preserve">
<defs>
</defs>
<path d="M72,27c0,4.971-4.029,9-9,9H9c-4.971,0-9-4.029-9-9l0,0c0-4.971,4.029-9,9-9h54C67.971,18,72,22.029,72,27L72,27z"/>
<path d="M72,54c0,4.971-4.029,9-9,9H9c-4.971,0-9-4.029-9-9l0,0c0-4.971,4.029-9,9-9h54C67.971,45,72,49.029,72,54L72,54z"/>
<path d="M72,81c0,4.971-4.029,9-9,9H9c-4.971,0-9-4.029-9-9l0,0c0-4.971,4.029-9,9-9h54C67.971,72,72,76.029,72,81L72,81z"/>
<path d="M162,9c0,4.971-4.029,9-9,9H99c-4.971,0-9-4.029-9-9l0,0c0-4.971,4.029-9,9-9h54C157.971,0,162,4.029,162,9L162,9z"/>
<path d="M162,54c0,4.971-4.029,9-9,9H99c-4.971,0-9-4.029-9-9l0,0c0-4.971,4.029-9,9-9h54C157.971,45,162,49.029,162,54L162,54z"/>
<path d="M162,99c0,4.971-4.029,9-9,9H99c-4.971,0-9-4.029-9-9l0,0c0-4.971,4.029-9,9-9h54C157.971,90,162,94.029,162,99L162,99z"/>
<path d="M252,27c0,4.971-4.029,9-9,9h-54c-4.971,0-9-4.029-9-9l0,0c0-4.971,4.029-9,9-9h54C247.971,18,252,22.029,252,27L252,27z"/>
<path d="M252,54c0,4.971-4.029,9-9,9h-54c-4.971,0-9-4.029-9-9l0,0c0-4.971,4.029-9,9-9h54C247.971,45,252,49.029,252,54L252,54z"/>
<path d="M252,81c0,4.971-4.029,9-9,9h-54c-4.971,0-9-4.029-9-9l0,0c0-4.971,4.029-9,9-9h54C247.971,72,252,76.029,252,81L252,81z"/>
</svg>
