<?xml version="1.0" encoding="utf-8"?>
<!-- Generator: Adobe Illustrator 15.0.2, SVG Export Plug-In  -->
<!DOCTYPE svg PUBLIC "-//W3C//DTD SVG 1.1//EN" "http://www.w3.org/Graphics/SVG/1.1/DTD/svg11.dtd" [
	<!ENTITY ns_flows "http://ns.adobe.com/Flows/1.0/">
]>
<svg version="1.1"
	 xmlns="http://www.w3.org/2000/svg" xmlns:xlink="http://www.w3.org/1999/xlink" xmlns:a="http://ns.adobe.com/AdobeSVGViewerExtensions/3.0/"
	 x="0px" y="0px" width="288px" height="288px" viewBox="-13.5 -85.5 288 288" enable-background="new -13.5 -85.5 288 288"
	 xml:space="preserve">
<defs>
</defs>
<path d="M207,130.5h-9c0-37.22-30.28-67.5-67.5-67.5S63,93.28,63,130.5h-9C54,88.318,88.317,54,130.5,54S207,88.318,207,130.5z"/>
<path d="M225,130.5h-9c0-47.145-38.355-85.5-85.5-85.5S45,83.355,45,130.5h-9C36,78.393,78.393,36,130.5,36S225,78.393,225,130.5z"
	/>
<path d="M243,130.5h-9C234,73.43,187.57,27,130.5,27S27,73.43,27,130.5h-9C18,68.467,68.468,18,130.5,18S243,68.467,243,130.5z"/>
<path d="M261,130.5h-9C252,63.505,197.495,9,130.5,9S9,63.505,9,130.5H0C0,58.542,58.542,0,130.5,0S261,58.542,261,130.5z"/>
</svg>
